<svg width="190" height="18" viewBox="0 0 190 18" fill="none" xmlns="http://www.w3.org/2000/svg">
<g filter="url(#filter0_d_75455_684)">
<path d="M12.22 5.12C12.22 5.45 12.215 5.78 12.205 6.11C12.205 6.44 12.205 6.77 12.205 7.1C12.205 7.33 12.265 7.515 12.385 7.655C12.515 7.795 12.675 7.865 12.865 7.865C13.065 7.865 13.25 7.82 13.42 7.73C13.6 7.64 13.75 7.495 13.87 7.295C14 7.095 14.1 6.83 14.17 6.5C14.24 6.16 14.275 5.745 14.275 5.255C14.275 4.655 14.175 4.12 13.975 3.65C13.785 3.17 13.52 2.765 13.18 2.435C12.84 2.095 12.43 1.835 11.95 1.655C11.48 1.475 10.97 1.385 10.42 1.385C9.73 1.385 9.115 1.505 8.575 1.745C8.045 1.985 7.595 2.315 7.225 2.735C6.855 3.155 6.57 3.645 6.37 4.205C6.18 4.765 6.085 5.36 6.085 5.99C6.085 6.7 6.185 7.34 6.385 7.91C6.595 8.48 6.89 8.97 7.27 9.38C7.65 9.78 8.105 10.09 8.635 10.31C9.175 10.53 9.78 10.64 10.45 10.64C10.73 10.64 10.995 10.63 11.245 10.61C11.495 10.58 11.735 10.54 11.965 10.49C12.195 10.43 12.425 10.355 12.655 10.265C12.885 10.175 13.125 10.065 13.375 9.935C13.455 10.115 13.525 10.295 13.585 10.475C13.655 10.655 13.73 10.83 13.81 11C13.29 11.23 12.76 11.41 12.22 11.54C11.69 11.67 11.125 11.735 10.525 11.735C9.695 11.735 8.93 11.61 8.23 11.36C7.54 11.12 6.945 10.76 6.445 10.28C5.945 9.79 5.555 9.185 5.275 8.465C4.995 7.745 4.855 6.915 4.855 5.975C4.855 5.155 4.985 4.4 5.245 3.71C5.515 3.01 5.89 2.405 6.37 1.895C6.85 1.385 7.43 0.989999 8.11 0.709999C8.79 0.419999 9.55 0.274999 10.39 0.274999C11.19 0.274999 11.905 0.399999 12.535 0.649999C13.175 0.899999 13.715 1.245 14.155 1.685C14.595 2.125 14.93 2.65 15.16 3.26C15.4 3.86 15.52 4.52 15.52 5.24C15.52 5.87 15.45 6.425 15.31 6.905C15.17 7.375 14.975 7.77 14.725 8.09C14.485 8.4 14.19 8.635 13.84 8.795C13.5 8.945 13.13 9.02 12.73 9.02C12.63 9.02 12.505 9.005 12.355 8.975C12.215 8.935 12.07 8.88 11.92 8.81C11.77 8.73 11.63 8.635 11.5 8.525C11.38 8.405 11.29 8.265 11.23 8.105H11.185C11.045 8.335 10.825 8.53 10.525 8.69C10.235 8.84 9.92 8.915 9.58 8.915C9.01 8.915 8.57 8.75 8.26 8.42C7.95 8.09 7.795 7.655 7.795 7.115C7.795 6.875 7.83 6.645 7.9 6.425C7.98 6.205 8.1 6.01 8.26 5.84C8.42 5.67 8.62 5.535 8.86 5.435C9.1 5.335 9.385 5.285 9.715 5.285H10.9V4.76C10.9 4.56 10.83 4.39 10.69 4.25C10.56 4.11 10.325 4.04 9.985 4.04C9.555 4.04 9.22 4.225 8.98 4.595C8.81 4.495 8.64 4.395 8.47 4.295C8.31 4.195 8.145 4.095 7.975 3.995C8.175 3.615 8.455 3.325 8.815 3.125C9.185 2.925 9.6 2.825 10.06 2.825C10.37 2.825 10.655 2.855 10.915 2.915C11.175 2.975 11.4 3.08 11.59 3.23C11.79 3.37 11.945 3.56 12.055 3.8C12.165 4.04 12.22 4.335 12.22 4.685V5.12ZM9.1 7.04C9.1 7.22 9.165 7.38 9.295 7.52C9.425 7.66 9.64 7.73 9.94 7.73C10.23 7.73 10.46 7.66 10.63 7.52C10.81 7.37 10.9 7.15 10.9 6.86V6.29H9.955C9.685 6.29 9.475 6.35 9.325 6.47C9.175 6.59 9.1 6.78 9.1 7.04ZM17.0819 3.305C17.1419 2.405 17.4269 1.71 17.9369 1.22C18.4469 0.73 19.0869 0.484999 19.8569 0.484999C20.7169 0.484999 21.3869 0.71 21.8669 1.16C22.3469 1.61 22.5869 2.26 22.5869 3.11C22.5869 3.51 22.5269 3.895 22.4069 4.265C22.2969 4.625 22.1269 4.985 21.8969 5.345L19.1819 9.41H22.4969V11H17.1119V9.515L20.4869 4.49C20.6269 4.28 20.7219 4.06 20.7719 3.83C20.8219 3.59 20.8469 3.37 20.8469 3.17C20.8469 2.89 20.7719 2.635 20.6219 2.405C20.4719 2.175 20.2119 2.06 19.8419 2.06C19.5419 2.06 19.2919 2.18 19.0919 2.42C18.8919 2.66 18.7769 3.035 18.7469 3.545L17.0819 3.305ZM29.6345 8.465C29.6345 8.885 29.5595 9.255 29.4095 9.575C29.2695 9.895 29.0745 10.17 28.8245 10.4C28.5745 10.62 28.2845 10.79 27.9545 10.91C27.6345 11.02 27.2945 11.075 26.9345 11.075C26.5745 11.075 26.2295 11.02 25.8995 10.91C25.5795 10.79 25.2945 10.62 25.0445 10.4C24.8045 10.17 24.6095 9.895 24.4595 9.575C24.3195 9.255 24.2495 8.885 24.2495 8.465V3.11C24.2495 2.69 24.3195 2.32 24.4595 2C24.6095 1.67 24.8095 1.395 25.0595 1.175C25.3095 0.945 25.5945 0.775 25.9145 0.665C26.2345 0.545 26.5745 0.484999 26.9345 0.484999C27.2945 0.484999 27.6395 0.545 27.9695 0.665C28.2995 0.775 28.5845 0.945 28.8245 1.175C29.0745 1.395 29.2695 1.67 29.4095 2C29.5595 2.32 29.6345 2.69 29.6345 3.11V8.465ZM27.9695 3.11C27.9695 2.78 27.8745 2.525 27.6845 2.345C27.4945 2.155 27.2445 2.06 26.9345 2.06C26.6245 2.06 26.3745 2.155 26.1845 2.345C25.9945 2.525 25.8995 2.78 25.8995 3.11V8.45C25.8995 8.79 25.9945 9.05 26.1845 9.23C26.3745 9.41 26.6245 9.5 26.9345 9.5C27.2445 9.5 27.4945 9.41 27.6845 9.23C27.8745 9.05 27.9695 8.79 27.9695 8.45V3.11ZM31.0272 3.305C31.0872 2.405 31.3722 1.71 31.8822 1.22C32.3922 0.73 33.0322 0.484999 33.8022 0.484999C34.6622 0.484999 35.3322 0.71 35.8122 1.16C36.2922 1.61 36.5322 2.26 36.5322 3.11C36.5322 3.51 36.4722 3.895 36.3522 4.265C36.2422 4.625 36.0722 4.985 35.8422 5.345L33.1272 9.41H36.4422V11H31.0572V9.515L34.4322 4.49C34.5722 4.28 34.6672 4.06 34.7172 3.83C34.7672 3.59 34.7922 3.37 34.7922 3.17C34.7922 2.89 34.7172 2.635 34.5672 2.405C34.4172 2.175 34.1572 2.06 33.7872 2.06C33.4872 2.06 33.2372 2.18 33.0372 2.42C32.8372 2.66 32.7222 3.035 32.6922 3.545L31.0272 3.305ZM42.4248 5.57C42.6948 5.69 42.9048 5.835 43.0548 6.005C43.2148 6.165 43.3348 6.35 43.4148 6.56C43.5048 6.77 43.5598 6.995 43.5798 7.235C43.5998 7.475 43.6098 7.73 43.6098 8C43.6098 8.45 43.5498 8.865 43.4298 9.245C43.3198 9.615 43.1448 9.94 42.9048 10.22C42.6648 10.49 42.3648 10.7 42.0048 10.85C41.6448 11 41.2198 11.075 40.7298 11.075C40.3698 11.075 40.0298 11.025 39.7098 10.925C39.3998 10.825 39.1248 10.67 38.8848 10.46C38.6448 10.25 38.4448 9.985 38.2848 9.665C38.1348 9.345 38.0398 8.965 37.9998 8.525L39.6498 8.27C39.7098 9.1 40.0748 9.515 40.7448 9.515C41.1148 9.515 41.3948 9.38 41.5848 9.11C41.7848 8.84 41.8848 8.465 41.8848 7.985C41.8848 7.415 41.7898 6.99 41.5998 6.71C41.4098 6.43 41.0848 6.29 40.6248 6.29H39.9798V4.895H40.6398C41.0798 4.895 41.3898 4.775 41.5698 4.535C41.7598 4.295 41.8548 3.95 41.8548 3.5C41.8548 3.33 41.8348 3.16 41.7948 2.99C41.7648 2.81 41.7098 2.655 41.6298 2.525C41.5498 2.385 41.4398 2.275 41.2998 2.195C41.1698 2.105 41.0048 2.06 40.8048 2.06C40.4748 2.06 40.2248 2.17 40.0548 2.39C39.8948 2.6 39.7898 2.92 39.7398 3.35C39.6498 3.34 39.5298 3.325 39.3798 3.305C39.2398 3.275 39.0848 3.25 38.9148 3.23C38.7548 3.2 38.5998 3.175 38.4498 3.155C38.3098 3.125 38.1948 3.105 38.1048 3.095C38.1948 2.305 38.4848 1.675 38.9748 1.205C39.4648 0.724999 40.0848 0.484999 40.8348 0.484999C41.3848 0.484999 41.8348 0.57 42.1848 0.74C42.5348 0.899999 42.8098 1.12 43.0098 1.4C43.2198 1.67 43.3648 1.985 43.4448 2.345C43.5248 2.695 43.5648 3.06 43.5648 3.44C43.5648 3.63 43.5448 3.83 43.5048 4.04C43.4748 4.25 43.4148 4.455 43.3248 4.655C43.2348 4.845 43.1148 5.025 42.9648 5.195C42.8248 5.355 42.6448 5.48 42.4248 5.57ZM57.6702 11H56.0202V6.83C56.0202 6.29 55.9552 5.865 55.8252 5.555C55.6952 5.245 55.4202 5.09 55.0002 5.09C54.7802 5.09 54.6002 5.13 54.4602 5.21C54.3302 5.29 54.2252 5.405 54.1452 5.555C54.0652 5.705 54.0102 5.885 53.9802 6.095C53.9502 6.305 53.9352 6.545 53.9352 6.815V11H52.2702V6.83C52.2702 6.29 52.2052 5.865 52.0752 5.555C51.9552 5.245 51.6802 5.09 51.2502 5.09C50.8202 5.09 50.5352 5.25 50.3952 5.57C50.2552 5.88 50.1852 6.31 50.1852 6.86V11H48.5352V3.59H50.1852V4.31C50.2052 4.31 50.2152 4.315 50.2152 4.325C50.2152 4.325 50.2252 4.325 50.2452 4.325C50.4352 4.065 50.6702 3.865 50.9502 3.725C51.2302 3.575 51.5252 3.5 51.8352 3.5C52.2552 3.5 52.6102 3.59 52.9002 3.77C53.2002 3.94 53.4402 4.17 53.6202 4.46H53.6352C53.8952 4.15 54.1802 3.915 54.4902 3.755C54.8102 3.585 55.1602 3.5 55.5402 3.5C55.9002 3.5 56.2152 3.565 56.4852 3.695C56.7552 3.825 56.9752 4 57.1452 4.22C57.3252 4.44 57.4552 4.7 57.5352 5C57.6252 5.3 57.6702 5.62 57.6702 5.96V11ZM63.0379 8.825C63.2679 8.945 63.4929 9.065 63.7129 9.185C63.9429 9.305 64.1729 9.43 64.4029 9.56C64.1729 10.06 63.8329 10.44 63.3829 10.7C62.9329 10.95 62.4329 11.075 61.8829 11.075C60.8329 11.075 60.0879 10.765 59.6479 10.145C59.2179 9.525 59.0029 8.575 59.0029 7.295C59.0029 6.765 59.0429 6.27 59.1229 5.81C59.2129 5.35 59.3629 4.95 59.5729 4.61C59.7929 4.26 60.0829 3.985 60.4429 3.785C60.8029 3.585 61.2579 3.485 61.8079 3.485C62.3179 3.485 62.7479 3.57 63.0979 3.74C63.4479 3.91 63.7329 4.145 63.9529 4.445C64.1729 4.745 64.3279 5.1 64.4179 5.51C64.5179 5.92 64.5679 6.37 64.5679 6.86V7.73H60.6829C60.6829 7.97 60.6979 8.205 60.7279 8.435C60.7579 8.655 60.8179 8.85 60.9079 9.02C60.9979 9.19 61.1179 9.325 61.2679 9.425C61.4179 9.525 61.6129 9.575 61.8529 9.575C62.0929 9.575 62.3129 9.51 62.5129 9.38C62.7129 9.24 62.8879 9.055 63.0379 8.825ZM62.8729 6.575C62.8729 6.105 62.7879 5.73 62.6179 5.45C62.4579 5.16 62.1779 5.015 61.7779 5.015C61.3779 5.015 61.1029 5.165 60.9529 5.465C60.8029 5.765 60.7179 6.135 60.6979 6.575H62.8729ZM67.6329 6.44L69.7329 3.59H71.7729L69.5079 6.47L72.0429 11H70.1079L68.3979 7.82L67.5879 8.93V11H65.9379V0.125H67.5879V6.44H67.6329ZM72.9266 11V9.05H74.7866V11H72.9266ZM84.4875 8.75H81.5925C81.5725 8.84 81.5325 8.99 81.4725 9.2C81.4125 9.41 81.3475 9.635 81.2775 9.875C81.2175 10.115 81.1575 10.34 81.0975 10.55C81.0475 10.76 81.0075 10.91 80.9775 11H79.1925L82.2075 0.559999H83.8575L86.8875 11H85.0725L84.4875 8.75ZM82.5075 5.12L81.9675 7.22H84.0975L83.5725 5.135C83.5525 5.045 83.5175 4.895 83.4675 4.685C83.4275 4.475 83.3775 4.255 83.3175 4.025C83.2675 3.795 83.2175 3.58 83.1675 3.38C83.1175 3.17 83.0875 3.02 83.0775 2.93H83.0025L82.5075 5.12ZM89.848 11.03C89.198 11.03 88.693 10.89 88.333 10.61C87.973 10.33 87.793 9.825 87.793 9.095V0.11H89.458V8.765C89.458 9.055 89.513 9.26 89.623 9.38C89.733 9.49 89.908 9.545 90.148 9.545H90.388V11.03H89.848ZM93.5102 11.03C92.8602 11.03 92.3552 10.89 91.9952 10.61C91.6352 10.33 91.4552 9.825 91.4552 9.095V0.11H93.1202V8.765C93.1202 9.055 93.1752 9.26 93.2852 9.38C93.3952 9.49 93.5702 9.545 93.8102 9.545H94.0502V11.03H93.5102ZM101.635 5.135C101.215 5.135 100.88 5.25 100.63 5.48C100.39 5.7 100.27 6.06 100.27 6.56V11.015H98.605V3.575H100.255V4.43L100.3 4.445C100.5 4.085 100.745 3.84 101.035 3.71C101.325 3.57 101.65 3.5 102.01 3.5C102.16 3.5 102.3 3.515 102.43 3.545C102.56 3.565 102.68 3.615 102.79 3.695L102.46 5.315C102.32 5.245 102.18 5.2 102.04 5.18C101.91 5.15 101.775 5.135 101.635 5.135ZM103.673 2.12V0.559999H105.338V2.12H103.673ZM103.673 11V3.575H105.338V11H103.673ZM112.218 11.09C112.218 11.99 111.983 12.715 111.513 13.265C111.043 13.815 110.328 14.09 109.368 14.09C108.858 14.09 108.393 13.985 107.973 13.775C107.553 13.565 107.208 13.26 106.938 12.86C106.978 12.83 107.058 12.765 107.177 12.665C107.298 12.575 107.423 12.475 107.553 12.365C107.693 12.255 107.823 12.15 107.943 12.05C108.063 11.96 108.143 11.9 108.183 11.87C108.323 12.08 108.493 12.25 108.693 12.38C108.903 12.51 109.138 12.575 109.398 12.575C109.768 12.575 110.053 12.46 110.253 12.23C110.453 12.01 110.553 11.71 110.553 11.33V10.265H110.508C110.318 10.515 110.078 10.705 109.788 10.835C109.508 10.955 109.243 11.015 108.993 11.015C108.463 11.015 108.048 10.905 107.748 10.685C107.448 10.465 107.218 10.18 107.058 9.83C106.908 9.48 106.813 9.085 106.773 8.645C106.733 8.205 106.713 7.765 106.713 7.325C106.713 6.885 106.733 6.44 106.773 5.99C106.813 5.53 106.908 5.12 107.058 4.76C107.218 4.39 107.448 4.09 107.748 3.86C108.058 3.62 108.478 3.5 109.008 3.5C109.288 3.5 109.558 3.56 109.818 3.68C110.088 3.79 110.323 3.97 110.523 4.22L110.553 4.19V3.575H112.218V11.09ZM109.473 9.425C109.713 9.425 109.903 9.365 110.042 9.245C110.183 9.125 110.293 8.965 110.373 8.765C110.453 8.565 110.503 8.345 110.523 8.105C110.553 7.855 110.568 7.6 110.568 7.34C110.568 7.05 110.558 6.77 110.538 6.5C110.528 6.22 110.488 5.975 110.418 5.765C110.348 5.555 110.238 5.385 110.088 5.255C109.948 5.125 109.748 5.06 109.488 5.06C109.248 5.06 109.053 5.12 108.903 5.24C108.763 5.36 108.653 5.52 108.573 5.72C108.503 5.92 108.458 6.16 108.438 6.44C108.418 6.72 108.408 7.015 108.408 7.325C108.408 7.625 108.418 7.905 108.438 8.165C108.468 8.415 108.518 8.635 108.588 8.825C108.668 9.015 108.778 9.165 108.918 9.275C109.058 9.375 109.243 9.425 109.473 9.425ZM117.514 11V6.23C117.514 5.86 117.419 5.58 117.229 5.39C117.049 5.19 116.799 5.09 116.479 5.09C116.159 5.09 115.899 5.19 115.699 5.39C115.499 5.59 115.399 5.88 115.399 6.26V11H113.749V0.11H115.399V4.28H115.459C115.649 4.05 115.884 3.865 116.164 3.725C116.444 3.575 116.739 3.5 117.049 3.5C117.689 3.5 118.204 3.705 118.594 4.115C118.984 4.525 119.179 5.08 119.179 5.78V11H117.514ZM122.838 11C122.218 11 121.753 10.825 121.443 10.475C121.133 10.125 120.978 9.695 120.978 9.185V4.895H120.198V3.575H120.978V1.625H122.598V3.575H123.618V4.895H122.598V8.69C122.598 8.95 122.653 9.155 122.763 9.305C122.873 9.445 123.058 9.515 123.318 9.515H123.678V11H122.838ZM129.984 8.795C129.984 9.485 129.739 10.04 129.249 10.46C128.759 10.88 128.084 11.09 127.224 11.09C126.564 11.09 126.009 10.975 125.559 10.745C125.109 10.505 124.739 10.135 124.449 9.635L125.679 8.735C126.019 9.325 126.529 9.62 127.209 9.62C127.549 9.62 127.814 9.545 128.004 9.395C128.204 9.245 128.304 9.04 128.304 8.78C128.304 8.51 128.209 8.32 128.019 8.21C127.839 8.1 127.584 8.005 127.254 7.925C126.904 7.845 126.569 7.755 126.249 7.655C125.939 7.545 125.664 7.41 125.424 7.25C125.184 7.08 124.989 6.87 124.839 6.62C124.699 6.37 124.629 6.065 124.629 5.705C124.629 5.365 124.694 5.06 124.824 4.79C124.964 4.51 125.149 4.275 125.379 4.085C125.609 3.895 125.884 3.75 126.204 3.65C126.524 3.55 126.869 3.5 127.239 3.5C127.909 3.5 128.444 3.615 128.844 3.845C129.254 4.065 129.584 4.37 129.834 4.76L128.724 5.72C128.394 5.21 127.914 4.955 127.284 4.955C126.914 4.955 126.654 5.035 126.504 5.195C126.364 5.345 126.294 5.51 126.294 5.69C126.294 5.81 126.329 5.915 126.399 6.005C126.479 6.085 126.584 6.155 126.714 6.215C126.844 6.275 126.989 6.33 127.149 6.38C127.309 6.42 127.474 6.46 127.644 6.5C127.984 6.58 128.299 6.675 128.589 6.785C128.879 6.885 129.124 7.025 129.324 7.205C129.534 7.375 129.694 7.59 129.804 7.85C129.924 8.11 129.984 8.425 129.984 8.795ZM137.729 5.135C137.309 5.135 136.974 5.25 136.724 5.48C136.484 5.7 136.364 6.06 136.364 6.56V11.015H134.699V3.575H136.349V4.43L136.394 4.445C136.594 4.085 136.839 3.84 137.129 3.71C137.419 3.57 137.744 3.5 138.104 3.5C138.254 3.5 138.394 3.515 138.524 3.545C138.654 3.565 138.774 3.615 138.884 3.695L138.554 5.315C138.414 5.245 138.274 5.2 138.134 5.18C138.004 5.15 137.869 5.135 137.729 5.135ZM143.487 8.825C143.717 8.945 143.942 9.065 144.162 9.185C144.392 9.305 144.622 9.43 144.852 9.56C144.622 10.06 144.282 10.44 143.832 10.7C143.382 10.95 142.882 11.075 142.332 11.075C141.282 11.075 140.537 10.765 140.097 10.145C139.667 9.525 139.452 8.575 139.452 7.295C139.452 6.765 139.492 6.27 139.572 5.81C139.662 5.35 139.812 4.95 140.022 4.61C140.242 4.26 140.532 3.985 140.892 3.785C141.252 3.585 141.707 3.485 142.257 3.485C142.767 3.485 143.197 3.57 143.547 3.74C143.897 3.91 144.182 4.145 144.402 4.445C144.622 4.745 144.777 5.1 144.867 5.51C144.967 5.92 145.017 6.37 145.017 6.86V7.73H141.132C141.132 7.97 141.147 8.205 141.177 8.435C141.207 8.655 141.267 8.85 141.357 9.02C141.447 9.19 141.567 9.325 141.717 9.425C141.867 9.525 142.062 9.575 142.302 9.575C142.542 9.575 142.762 9.51 142.962 9.38C143.162 9.24 143.337 9.055 143.487 8.825ZM143.322 6.575C143.322 6.105 143.237 5.73 143.067 5.45C142.907 5.16 142.627 5.015 142.227 5.015C141.827 5.015 141.552 5.165 141.402 5.465C141.252 5.765 141.167 6.135 141.147 6.575H143.322ZM151.502 8.795C151.502 9.485 151.257 10.04 150.767 10.46C150.277 10.88 149.602 11.09 148.742 11.09C148.082 11.09 147.527 10.975 147.077 10.745C146.627 10.505 146.257 10.135 145.967 9.635L147.197 8.735C147.537 9.325 148.047 9.62 148.727 9.62C149.067 9.62 149.332 9.545 149.522 9.395C149.722 9.245 149.822 9.04 149.822 8.78C149.822 8.51 149.727 8.32 149.537 8.21C149.357 8.1 149.102 8.005 148.772 7.925C148.422 7.845 148.087 7.755 147.767 7.655C147.457 7.545 147.182 7.41 146.942 7.25C146.702 7.08 146.507 6.87 146.357 6.62C146.217 6.37 146.147 6.065 146.147 5.705C146.147 5.365 146.212 5.06 146.342 4.79C146.482 4.51 146.667 4.275 146.897 4.085C147.127 3.895 147.402 3.75 147.722 3.65C148.042 3.55 148.387 3.5 148.757 3.5C149.427 3.5 149.962 3.615 150.362 3.845C150.772 4.065 151.102 4.37 151.352 4.76L150.242 5.72C149.912 5.21 149.432 4.955 148.802 4.955C148.432 4.955 148.172 5.035 148.022 5.195C147.882 5.345 147.812 5.51 147.812 5.69C147.812 5.81 147.847 5.915 147.917 6.005C147.997 6.085 148.102 6.155 148.232 6.215C148.362 6.275 148.507 6.33 148.667 6.38C148.827 6.42 148.992 6.46 149.162 6.5C149.502 6.58 149.817 6.675 150.107 6.785C150.397 6.885 150.642 7.025 150.842 7.205C151.052 7.375 151.212 7.59 151.322 7.85C151.442 8.11 151.502 8.425 151.502 8.795ZM156.51 8.825C156.74 8.945 156.965 9.065 157.185 9.185C157.415 9.305 157.645 9.43 157.875 9.56C157.645 10.06 157.305 10.44 156.855 10.7C156.405 10.95 155.905 11.075 155.355 11.075C154.305 11.075 153.56 10.765 153.12 10.145C152.69 9.525 152.475 8.575 152.475 7.295C152.475 6.765 152.515 6.27 152.595 5.81C152.685 5.35 152.835 4.95 153.045 4.61C153.265 4.26 153.555 3.985 153.915 3.785C154.275 3.585 154.73 3.485 155.28 3.485C155.79 3.485 156.22 3.57 156.57 3.74C156.92 3.91 157.205 4.145 157.425 4.445C157.645 4.745 157.8 5.1 157.89 5.51C157.99 5.92 158.04 6.37 158.04 6.86V7.73H154.155C154.155 7.97 154.17 8.205 154.2 8.435C154.23 8.655 154.29 8.85 154.38 9.02C154.47 9.19 154.59 9.325 154.74 9.425C154.89 9.525 155.085 9.575 155.325 9.575C155.565 9.575 155.785 9.51 155.985 9.38C156.185 9.24 156.36 9.055 156.51 8.825ZM156.345 6.575C156.345 6.105 156.26 5.73 156.09 5.45C155.93 5.16 155.65 5.015 155.25 5.015C154.85 5.015 154.575 5.165 154.425 5.465C154.275 5.765 154.19 6.135 154.17 6.575H156.345ZM162.485 5.135C162.065 5.135 161.73 5.25 161.48 5.48C161.24 5.7 161.12 6.06 161.12 6.56V11.015H159.455V3.575H161.105V4.43L161.15 4.445C161.35 4.085 161.595 3.84 161.885 3.71C162.175 3.57 162.5 3.5 162.86 3.5C163.01 3.5 163.15 3.515 163.28 3.545C163.41 3.565 163.53 3.615 163.64 3.695L163.31 5.315C163.17 5.245 163.03 5.2 162.89 5.18C162.76 5.15 162.625 5.135 162.485 5.135ZM166.908 8.69C166.938 8.57 166.973 8.415 167.013 8.225C167.063 8.035 167.113 7.84 167.163 7.64C167.213 7.43 167.258 7.23 167.298 7.04C167.348 6.85 167.388 6.7 167.418 6.59C167.458 6.4 167.508 6.175 167.568 5.915C167.638 5.645 167.708 5.37 167.778 5.09C167.848 4.81 167.913 4.54 167.973 4.28C168.043 4.01 168.103 3.78 168.153 3.59H169.953C169.913 3.69 169.833 3.93 169.713 4.31C169.603 4.68 169.468 5.125 169.308 5.645C169.148 6.155 168.978 6.705 168.798 7.295C168.628 7.875 168.463 8.425 168.303 8.945C168.143 9.455 168.003 9.9 167.883 10.28C167.773 10.66 167.698 10.9 167.658 11H166.038C165.888 10.54 165.708 9.98 165.498 9.32C165.298 8.66 165.093 7.985 164.883 7.295C164.673 6.595 164.468 5.92 164.268 5.27C164.068 4.61 163.893 4.05 163.743 3.59H165.543C165.593 3.77 165.653 3.995 165.723 4.265C165.793 4.525 165.863 4.8 165.933 5.09C166.003 5.37 166.068 5.645 166.128 5.915C166.198 6.175 166.258 6.395 166.308 6.575L166.848 8.69H166.908ZM174.307 8.825C174.537 8.945 174.762 9.065 174.982 9.185C175.212 9.305 175.442 9.43 175.672 9.56C175.442 10.06 175.102 10.44 174.652 10.7C174.202 10.95 173.702 11.075 173.152 11.075C172.102 11.075 171.357 10.765 170.917 10.145C170.487 9.525 170.272 8.575 170.272 7.295C170.272 6.765 170.312 6.27 170.392 5.81C170.482 5.35 170.632 4.95 170.842 4.61C171.062 4.26 171.352 3.985 171.712 3.785C172.072 3.585 172.527 3.485 173.077 3.485C173.587 3.485 174.017 3.57 174.367 3.74C174.717 3.91 175.002 4.145 175.222 4.445C175.442 4.745 175.597 5.1 175.687 5.51C175.787 5.92 175.837 6.37 175.837 6.86V7.73H171.952C171.952 7.97 171.967 8.205 171.997 8.435C172.027 8.655 172.087 8.85 172.177 9.02C172.267 9.19 172.387 9.325 172.537 9.425C172.687 9.525 172.882 9.575 173.122 9.575C173.362 9.575 173.582 9.51 173.782 9.38C173.982 9.24 174.157 9.055 174.307 8.825ZM174.142 6.575C174.142 6.105 174.057 5.73 173.887 5.45C173.727 5.16 173.447 5.015 173.047 5.015C172.647 5.015 172.372 5.165 172.222 5.465C172.072 5.765 171.987 6.135 171.967 6.575H174.142ZM180.762 10.37C180.562 10.62 180.332 10.8 180.072 10.91C179.812 11.02 179.537 11.075 179.247 11.075C178.727 11.075 178.312 10.97 178.002 10.76C177.702 10.54 177.472 10.255 177.312 9.905C177.162 9.545 177.067 9.14 177.027 8.69C176.987 8.23 176.967 7.76 176.967 7.28C176.967 6.82 176.992 6.365 177.042 5.915C177.102 5.465 177.212 5.06 177.372 4.7C177.542 4.34 177.782 4.05 178.092 3.83C178.402 3.61 178.812 3.5 179.322 3.5C179.572 3.5 179.827 3.555 180.087 3.665C180.347 3.775 180.567 3.94 180.747 4.16H180.792V0.11H182.457V11H180.792V10.4L180.762 10.37ZM179.742 5.075C179.502 5.075 179.307 5.135 179.157 5.255C179.017 5.375 178.907 5.54 178.827 5.75C178.757 5.95 178.712 6.18 178.692 6.44C178.672 6.7 178.662 6.965 178.662 7.235C178.662 7.555 178.672 7.855 178.692 8.135C178.722 8.405 178.772 8.645 178.842 8.855C178.922 9.065 179.032 9.23 179.172 9.35C179.312 9.47 179.502 9.53 179.742 9.53C180.002 9.53 180.202 9.46 180.342 9.32C180.492 9.18 180.597 9 180.657 8.78C180.727 8.55 180.767 8.3 180.777 8.03C180.797 7.76 180.807 7.49 180.807 7.22C180.807 6.97 180.797 6.715 180.777 6.455C180.757 6.195 180.707 5.965 180.627 5.765C180.557 5.565 180.452 5.4 180.312 5.27C180.172 5.14 179.982 5.075 179.742 5.075ZM184.02 11V9.05H185.88V11H184.02Z" fill="#ADADAD"/>
</g>
<defs>
<filter id="filter0_d_75455_684" x="0.85498" y="0.109863" width="189.025" height="21.98" filterUnits="userSpaceOnUse" color-interpolation-filters="sRGB">
<feFlood flood-opacity="0" result="BackgroundImageFix"/>
<feColorMatrix in="SourceAlpha" type="matrix" values="0 0 0 0 0 0 0 0 0 0 0 0 0 0 0 0 0 0 127 0" result="hardAlpha"/>
<feOffset dy="4"/>
<feGaussianBlur stdDeviation="2"/>
<feComposite in2="hardAlpha" operator="out"/>
<feColorMatrix type="matrix" values="0 0 0 0 0 0 0 0 0 0 0 0 0 0 0 0 0 0 0.25 0"/>
<feBlend mode="normal" in2="BackgroundImageFix" result="effect1_dropShadow_75455_684"/>
<feBlend mode="normal" in="SourceGraphic" in2="effect1_dropShadow_75455_684" result="shape"/>
</filter>
</defs>
</svg>
